<?xml version="1.0" encoding="UTF-8"?>
<svg version="1.1" xmlns="http://www.w3.org/2000/svg" width="72" height="62">
<path d="M0 0 C23.76 0 47.52 0 72 0 C72 20.46 72 40.92 72 62 C48.24 62 24.48 62 0 62 C0 41.54 0 21.08 0 0 Z " fill="#F7FBFF" transform="translate(0,0)"/>
<path d="M0 0 C3.33496652 2.43438485 5.68793259 5.09439687 6.3671875 9.2421875 C6.375 11.4375 6.375 11.4375 6 15 C6.78375 15.2475 7.5675 15.495 8.375 15.75 C11.45666209 17.21745814 11.79958709 17.89848067 13 21 C13.52488119 24.3979151 13.55046046 27.60365895 13 31 C10.56543724 34.15835169 8.30027757 35.79981495 5 38 C2.51614242 38.19534716 0.14736621 38.28018134 -2.3359375 38.265625 C-3.05230377 38.26753845 -3.76867004 38.2694519 -4.50674438 38.27142334 C-6.02142691 38.27278333 -7.53612117 38.26909982 -9.05078125 38.26074219 C-11.35964443 38.25007097 -13.66772401 38.26062704 -15.9765625 38.2734375 C-17.45052254 38.27211526 -18.9244821 38.26955152 -20.3984375 38.265625 C-21.08505463 38.26967346 -21.77167175 38.27372192 -22.47909546 38.27789307 C-27.26748448 38.23149524 -30.93326913 37.56474591 -34.78515625 34.6484375 C-36.77837761 31.94380916 -36.46554395 29.4845472 -36.359375 26.23046875 C-35.82656118 22.92354817 -34.47368834 21.1909811 -32 19 C-31.01 19 -30.02 19 -29 19 C-29.11601562 18.34773438 -29.23203125 17.69546875 -29.3515625 17.0234375 C-29.65389135 14.09516664 -29.69813143 11.86962 -29 9 C-24.34018069 4.45966323 -18.2013469 2.48832325 -12 1 C-11.360625 0.608125 -10.72125 0.21625 -10.0625 -0.1875 C-6.58833737 -1.55610952 -3.43172934 -1.22280011 0 0 Z " fill="#0A80FF" transform="translate(46,15)"/>
<path d="M0 0 C1.85642978 2.4752397 2.34892425 4.20281822 2.6875 7.25 C3.925 7.1675 5.1625 7.085 6.4375 7 C9.49450305 7.01626065 10.515679 7.14261187 13.1875 8.8125 C15.27142818 12.19888329 15.24552097 14.34385318 14.6875 18.25 C13.12744141 20.43994141 13.12744141 20.43994141 10.6875 22.25 C8.03028253 22.62401774 5.79774449 22.76572586 3.1484375 22.7109375 C2.42637115 22.71002106 1.70430481 22.70910461 0.96035767 22.7081604 C-0.56100059 22.70213379 -2.08234749 22.68641575 -3.60351562 22.66162109 C-5.93664017 22.62501349 -8.26818019 22.62060251 -10.6015625 22.62109375 C-12.08074294 22.61126577 -13.5599126 22.59961016 -15.0390625 22.5859375 C-15.73802643 22.58371185 -16.43699036 22.58148621 -17.15713501 22.57919312 C-22.08030498 22.48219502 -22.08030498 22.48219502 -24.3125 20.25 C-24.5625 17.25 -24.5625 17.25 -24.3125 14.25 C-21.95296906 11.89046906 -20.53354383 11.75858587 -17.3125 11.25 C-17.415625 10.21875 -17.51875 9.1875 -17.625 8.125 C-17.21243983 3.00925392 -15.97629032 1.7472544 -12.3125 -1.75 C-8.12421683 -3.77658863 -3.61017613 -2.73202518 0 0 Z " fill="#F6FBFF" transform="translate(39.3125,25.75)"/>
<path d="M0 0 C5.4 0.6 5.4 0.6 7.875 2.25 C9.37422891 4.58213386 9.22023906 6.28371825 9 9 C4.16743695 8.58578031 2.17320782 6.53586014 -1 3 C-0.67 2.01 -0.34 1.02 0 0 Z " fill="#E1F0FF" transform="translate(38,19)"/>
<path d="M0 0 C0.33 1.32 0.66 2.64 1 4 C-3.05431692 5.15837626 -5.21812119 4.83691257 -9 3 C-7.14340032 -0.71319936 -3.69365381 -0.09982848 0 0 Z " fill="#1C8AFF" transform="translate(63,23)"/>
<path d="M0 0 C1.98 0.495 1.98 0.495 4 1 C3.25 7.75 3.25 7.75 1 10 C-0.83691257 6.21812119 -1.15837626 4.05431692 0 0 Z " fill="#1D8AFF" transform="translate(39,2)"/>
<path d="M0 0 C1.32 0.66 2.64 1.32 4 2 C3.375 3.875 3.375 3.875 2 6 C-1.125 7.25 -1.125 7.25 -4 8 C-2.68 5.36 -1.36 2.72 0 0 Z " fill="#1485FF" transform="translate(54,8)"/>
<path d="M0 0 C0.99 0 1.98 0 3 0 C4.06775224 1.96466413 5.06553465 3.96855359 6 6 C5.67 6.66 5.34 7.32 5 8 C3.02 7.01 1.04 6.02 -1 5 C-0.67 3.35 -0.34 1.7 0 0 Z " fill="#1686FF" transform="translate(25,8)"/>
</svg>
